<svg xmlns="http://www.w3.org/2000/svg" viewBox="0 0 760 180" role="img" aria-labelledby="title desc">
  <title id="title">Nuzultrip</title>
  <desc id="desc">Logo Nuzultrip versi portal Equity Relations dengan simbol teal dan wordmark navy.</desc>
  <g transform="translate(10 10)">
    <circle cx="80" cy="80" r="68" fill="none" stroke="#0E9C9C" stroke-width="5"/>
    <path d="M80 30c-14 18-7 31 7 43 13 11 18 20 12 33-5 11-15 19-28 25 8-14 6-25-5-36-12-12-18-23-11-36 4-8 12-16 25-29z" fill="#0E9C9C"/>
    <path d="M61 48c-10 12-10 24-1 34 6 7 15 11 21 17 7 7 9 15 5 25-3 8-9 15-18 21 2-9-1-17-9-25-10-10-16-20-14-31 2-14 8-27 16-41z" fill="#0E9C9C" opacity=".92"/>
    <path d="M45 112c9 14 21 22 36 24 18 2 35-5 46-20-7 27-25 42-48 42-24 0-43-15-50-40 5 3 10 5 16 6z" fill="#0E9C9C"/>
  </g>
  <text x="170" y="113" fill="#14184A" font-family="Arial, Helvetica, sans-serif" font-size="78" font-weight="800" letter-spacing="-3">Nuzultrip</text>
</svg>
